<svg width="390" height="844" viewBox="0 0 390 844" xmlns="http://www.w3.org/2000/svg">
  <!-- Background -->
  <rect width="390" height="844" fill="#F0F8FF"/>
  
  <!-- Header -->
  <rect x="0" y="0" width="390" height="80" fill="#0077BE"/>
  <text x="195" y="50" fill="white" font-family="Arial, sans-serif" font-size="20" font-weight="bold" text-anchor="middle">Sudoku Kids - Easy 4×4</text>
  
  <!-- 4x4 Grid -->
  <g transform="translate(75, 150)">
    <!-- Grid background -->
    <rect x="0" y="0" width="240" height="240" fill="white" stroke="#0077BE" stroke-width="3" rx="8"/>
    
    <!-- Grid lines -->
    <line x1="60" y1="0" x2="60" y2="240" stroke="#0077BE" stroke-width="2"/>
    <line x1="120" y1="0" x2="120" y2="240" stroke="#0077BE" stroke-width="2"/>
    <line x1="180" y1="0" x2="180" y2="240" stroke="#0077BE" stroke-width="2"/>
    <line x1="0" y1="60" x2="240" y2="60" stroke="#0077BE" stroke-width="2"/>
    <line x1="0" y1="120" x2="240" y2="120" stroke="#0077BE" stroke-width="3"/>
    <line x1="0" y1="180" x2="240" y2="180" stroke="#0077BE" stroke-width="2"/>
    
    <!-- Sub-grid separator -->
    <line x1="120" y1="0" x2="120" y2="240" stroke="#0077BE" stroke-width="3"/>
    
    <!-- Sample numbers -->
    <text x="30" y="40" fill="#0077BE" font-family="Arial, sans-serif" font-size="24" font-weight="bold" text-anchor="middle">1</text>
    <text x="150" y="40" fill="#0077BE" font-family="Arial, sans-serif" font-size="24" font-weight="bold" text-anchor="middle">4</text>
    <text x="90" y="100" fill="#0077BE" font-family="Arial, sans-serif" font-size="24" font-weight="bold" text-anchor="middle">3</text>
    <text x="210" y="160" fill="#0077BE" font-family="Arial, sans-serif" font-size="24" font-weight="bold" text-anchor="middle">2</text>
    
    <!-- Empty cells with light background -->
    <rect x="60" y="0" width="60" height="60" fill="#F8FBFF" stroke="#E5E7EB" stroke-width="1"/>
    <rect x="0" y="60" width="60" height="60" fill="#F8FBFF" stroke="#E5E7EB" stroke-width="1"/>
    <rect x="180" y="60" width="60" height="60" fill="#F8FBFF" stroke="#E5E7EB" stroke-width="1"/>
  </g>
  
  <!-- Controls -->
  <g transform="translate(50, 450)">
    <rect x="0" y="0" width="80" height="50" fill="#32CD32" rx="8"/>
    <text x="40" y="30" fill="white" font-family="Arial, sans-serif" font-size="14" font-weight="bold" text-anchor="middle">Hint</text>
    
    <rect x="100" y="0" width="80" height="50" fill="#FF6B35" rx="8"/>
    <text x="140" y="30" fill="white" font-family="Arial, sans-serif" font-size="14" font-weight="bold" text-anchor="middle">Check</text>
    
    <rect x="200" y="0" width="90" height="50" fill="#9B59B6" rx="8"/>
    <text x="245" y="30" fill="white" font-family="Arial, sans-serif" font-size="14" font-weight="bold" text-anchor="middle">New Game</text>
  </g>
  
  <!-- Child-friendly elements -->
  <g transform="translate(320, 120)">
    <path d="M0,-8 L2,0 L8,0 L2,2 L0,8 L-2,2 L-8,0 L-2,0 Z" fill="#FFD700" opacity="0.9"/>
  </g>
  
  <text x="195" y="550" fill="#666" font-family="Arial, sans-serif" font-size="16" text-anchor="middle">Great job! Keep solving! 🌟</text>
</svg>